<svg class="rich-terminal" viewBox="0 0 1238 782.0" xmlns="http://www.w3.org/2000/svg">
    <!-- Generated with Rich https://www.textualize.io -->
    <style>

    @font-face {
        font-family: "Fira Code";
        src: local("FiraCode-Regular"),
                url("https://cdnjs.cloudflare.com/ajax/libs/firacode/6.2.0/woff2/FiraCode-Regular.woff2") format("woff2"),
                url("https://cdnjs.cloudflare.com/ajax/libs/firacode/6.2.0/woff/FiraCode-Regular.woff") format("woff");
        font-style: normal;
        font-weight: 400;
    }
    @font-face {
        font-family: "Fira Code";
        src: local("FiraCode-Bold"),
                url("https://cdnjs.cloudflare.com/ajax/libs/firacode/6.2.0/woff2/FiraCode-Bold.woff2") format("woff2"),
                url("https://cdnjs.cloudflare.com/ajax/libs/firacode/6.2.0/woff/FiraCode-Bold.woff") format("woff");
        font-style: bold;
        font-weight: 700;
    }

    .terminal-matrix {
        font-family: Fira Code, monospace;
        font-size: 20px;
        line-height: 24.4px;
        font-variant-east-asian: full-width;
    }

    .terminal-title {
        font-size: 18px;
        font-weight: bold;
        font-family: arial;
    }

    .terminal-r1 { fill: #c5c8c6 }
.terminal-r2 { fill: #0a1621;font-weight: bold }
.terminal-r3 { fill: #e1e3e5 }
.terminal-r4 { fill: #00f2fe;font-weight: bold }
.terminal-r5 { fill: #9fa3a9 }
.terminal-r6 { fill: #111827 }
.terminal-r7 { fill: #a5a9af }
.terminal-r8 { fill: #777d86;font-style: italic; }
.terminal-r9 { fill: #6e737c;font-style: italic; }
.terminal-r10 { fill: #ffffff }
.terminal-r11 { fill: #e0e0e2;font-weight: bold }
.terminal-r12 { fill: #f9fafb }
.terminal-r13 { fill: #e0e0e2 }
.terminal-r14 { fill: #1f2937 }
.terminal-r15 { fill: #4facfe }
.terminal-r16 { fill: #9fa2a8;font-style: italic; }
.terminal-r17 { fill: #9fa2a8;font-weight: bold;font-style: italic; }
.terminal-r18 { fill: #344455 }
.terminal-r19 { fill: #0b1620;font-weight: bold }
.terminal-r20 { fill: #001f21;font-weight: bold }
.terminal-r21 { fill: #6e737c }
.terminal-r22 { fill: #f77171;font-weight: bold }
.terminal-r23 { fill: #3f4551 }
    </style>

    <defs>
    <clipPath id="terminal-clip-terminal">
      <rect x="0" y="0" width="1219.0" height="731.0" />
    </clipPath>
    <clipPath id="terminal-line-0">
    <rect x="0" y="1.5" width="1220" height="24.65"/>
            </clipPath>
<clipPath id="terminal-line-1">
    <rect x="0" y="25.9" width="1220" height="24.65"/>
            </clipPath>
<clipPath id="terminal-line-2">
    <rect x="0" y="50.3" width="1220" height="24.65"/>
            </clipPath>
<clipPath id="terminal-line-3">
    <rect x="0" y="74.7" width="1220" height="24.65"/>
            </clipPath>
<clipPath id="terminal-line-4">
    <rect x="0" y="99.1" width="1220" height="24.65"/>
            </clipPath>
<clipPath id="terminal-line-5">
    <rect x="0" y="123.5" width="1220" height="24.65"/>
            </clipPath>
<clipPath id="terminal-line-6">
    <rect x="0" y="147.9" width="1220" height="24.65"/>
            </clipPath>
<clipPath id="terminal-line-7">
    <rect x="0" y="172.3" width="1220" height="24.65"/>
            </clipPath>
<clipPath id="terminal-line-8">
    <rect x="0" y="196.7" width="1220" height="24.65"/>
            </clipPath>
<clipPath id="terminal-line-9">
    <rect x="0" y="221.1" width="1220" height="24.65"/>
            </clipPath>
<clipPath id="terminal-line-10">
    <rect x="0" y="245.5" width="1220" height="24.65"/>
            </clipPath>
<clipPath id="terminal-line-11">
    <rect x="0" y="269.9" width="1220" height="24.65"/>
            </clipPath>
<clipPath id="terminal-line-12">
    <rect x="0" y="294.3" width="1220" height="24.65"/>
            </clipPath>
<clipPath id="terminal-line-13">
    <rect x="0" y="318.7" width="1220" height="24.65"/>
            </clipPath>
<clipPath id="terminal-line-14">
    <rect x="0" y="343.1" width="1220" height="24.65"/>
            </clipPath>
<clipPath id="terminal-line-15">
    <rect x="0" y="367.5" width="1220" height="24.65"/>
            </clipPath>
<clipPath id="terminal-line-16">
    <rect x="0" y="391.9" width="1220" height="24.65"/>
            </clipPath>
<clipPath id="terminal-line-17">
    <rect x="0" y="416.3" width="1220" height="24.65"/>
            </clipPath>
<clipPath id="terminal-line-18">
    <rect x="0" y="440.7" width="1220" height="24.65"/>
            </clipPath>
<clipPath id="terminal-line-19">
    <rect x="0" y="465.1" width="1220" height="24.65"/>
            </clipPath>
<clipPath id="terminal-line-20">
    <rect x="0" y="489.5" width="1220" height="24.65"/>
            </clipPath>
<clipPath id="terminal-line-21">
    <rect x="0" y="513.9" width="1220" height="24.65"/>
            </clipPath>
<clipPath id="terminal-line-22">
    <rect x="0" y="538.3" width="1220" height="24.65"/>
            </clipPath>
<clipPath id="terminal-line-23">
    <rect x="0" y="562.7" width="1220" height="24.65"/>
            </clipPath>
<clipPath id="terminal-line-24">
    <rect x="0" y="587.1" width="1220" height="24.65"/>
            </clipPath>
<clipPath id="terminal-line-25">
    <rect x="0" y="611.5" width="1220" height="24.65"/>
            </clipPath>
<clipPath id="terminal-line-26">
    <rect x="0" y="635.9" width="1220" height="24.65"/>
            </clipPath>
<clipPath id="terminal-line-27">
    <rect x="0" y="660.3" width="1220" height="24.65"/>
            </clipPath>
<clipPath id="terminal-line-28">
    <rect x="0" y="684.7" width="1220" height="24.65"/>
            </clipPath>
    </defs>

    <rect fill="#292929" stroke="rgba(255,255,255,0.35)" stroke-width="1" x="1" y="1" width="1236" height="780" rx="8"/><text class="terminal-title" fill="#c5c8c6" text-anchor="middle" x="618" y="27">Servonaut</text>
            <g transform="translate(26,22)">
            <circle cx="0" cy="0" r="7" fill="#ff5f57"/>
            <circle cx="22" cy="0" r="7" fill="#febc2e"/>
            <circle cx="44" cy="0" r="7" fill="#28c840"/>
            </g>
        
    <g transform="translate(9, 41)" clip-path="url(#terminal-clip-terminal)">
    <rect fill="#4facfe" x="0" y="1.5" width="12.2" height="24.65" shape-rendering="crispEdges"/><rect fill="#4facfe" x="12.2" y="1.5" width="12.2" height="24.65" shape-rendering="crispEdges"/><rect fill="#4facfe" x="24.4" y="1.5" width="61" height="24.65" shape-rendering="crispEdges"/><rect fill="#4facfe" x="85.4" y="1.5" width="12.2" height="24.65" shape-rendering="crispEdges"/><rect fill="#4facfe" x="97.6" y="1.5" width="439.2" height="24.65" shape-rendering="crispEdges"/><rect fill="#4facfe" x="536.8" y="1.5" width="109.8" height="24.65" shape-rendering="crispEdges"/><rect fill="#4facfe" x="646.6" y="1.5" width="451.4" height="24.65" shape-rendering="crispEdges"/><rect fill="#4facfe" x="1098" y="1.5" width="12.2" height="24.65" shape-rendering="crispEdges"/><rect fill="#4facfe" x="1110.2" y="1.5" width="0" height="24.65" shape-rendering="crispEdges"/><rect fill="#4facfe" x="1110.2" y="1.5" width="109.8" height="24.65" shape-rendering="crispEdges"/><rect fill="#1f2937" x="0" y="25.9" width="305" height="24.65" shape-rendering="crispEdges"/><rect fill="#111827" x="305" y="25.9" width="915" height="24.65" shape-rendering="crispEdges"/><rect fill="#1f2937" x="0" y="50.3" width="12.2" height="24.65" shape-rendering="crispEdges"/><rect fill="#1f2937" x="12.2" y="50.3" width="24.4" height="24.65" shape-rendering="crispEdges"/><rect fill="#1f2937" x="36.6" y="50.3" width="109.8" height="24.65" shape-rendering="crispEdges"/><rect fill="#1f2937" x="146.4" y="50.3" width="12.2" height="24.65" shape-rendering="crispEdges"/><rect fill="#1f2937" x="158.6" y="50.3" width="73.2" height="24.65" shape-rendering="crispEdges"/><rect fill="#1f2937" x="231.8" y="50.3" width="73.2" height="24.65" shape-rendering="crispEdges"/><rect fill="#111827" x="305" y="50.3" width="24.4" height="24.65" shape-rendering="crispEdges"/><rect fill="#111827" x="329.4" y="50.3" width="305" height="24.65" shape-rendering="crispEdges"/><rect fill="#111827" x="634.4" y="50.3" width="536.8" height="24.65" shape-rendering="crispEdges"/><rect fill="#4facfe" x="1171.2" y="50.3" width="24.4" height="24.65" shape-rendering="crispEdges"/><rect fill="#111827" x="1195.6" y="50.3" width="24.4" height="24.65" shape-rendering="crispEdges"/><rect fill="#1f2937" x="0" y="74.7" width="12.2" height="24.65" shape-rendering="crispEdges"/><rect fill="#1f2937" x="12.2" y="74.7" width="24.4" height="24.65" shape-rendering="crispEdges"/><rect fill="#1f2937" x="36.6" y="74.7" width="170.8" height="24.65" shape-rendering="crispEdges"/><rect fill="#1f2937" x="207.4" y="74.7" width="97.6" height="24.65" shape-rendering="crispEdges"/><rect fill="#111827" x="305" y="74.7" width="36.6" height="24.65" shape-rendering="crispEdges"/><rect fill="#111827" x="341.6" y="74.7" width="524.6" height="24.65" shape-rendering="crispEdges"/><rect fill="#111827" x="866.2" y="74.7" width="305" height="24.65" shape-rendering="crispEdges"/><rect fill="#4facfe" x="1171.2" y="74.7" width="24.4" height="24.65" shape-rendering="crispEdges"/><rect fill="#111827" x="1195.6" y="74.7" width="24.4" height="24.65" shape-rendering="crispEdges"/><rect fill="#1f2937" x="0" y="99.1" width="36.6" height="24.65" shape-rendering="crispEdges"/><rect fill="#1f2937" x="36.6" y="99.1" width="85.4" height="24.65" shape-rendering="crispEdges"/><rect fill="#1f2937" x="122" y="99.1" width="183" height="24.65" shape-rendering="crispEdges"/><rect fill="#111827" x="305" y="99.1" width="36.6" height="24.65" shape-rendering="crispEdges"/><rect fill="#111827" x="341.6" y="99.1" width="732" height="24.65" shape-rendering="crispEdges"/><rect fill="#111827" x="1073.6" y="99.1" width="97.6" height="24.65" shape-rendering="crispEdges"/><rect fill="#4facfe" x="1171.2" y="99.1" width="24.4" height="24.65" shape-rendering="crispEdges"/><rect fill="#111827" x="1195.6" y="99.1" width="24.4" height="24.65" shape-rendering="crispEdges"/><rect fill="#1f2937" x="0" y="123.5" width="305" height="24.65" shape-rendering="crispEdges"/><rect fill="#111827" x="305" y="123.5" width="36.6" height="24.65" shape-rendering="crispEdges"/><rect fill="#111827" x="341.6" y="123.5" width="732" height="24.65" shape-rendering="crispEdges"/><rect fill="#111827" x="1073.6" y="123.5" width="97.6" height="24.65" shape-rendering="crispEdges"/><rect fill="#4facfe" x="1171.2" y="123.5" width="24.4" height="24.65" shape-rendering="crispEdges"/><rect fill="#111827" x="1195.6" y="123.5" width="24.4" height="24.65" shape-rendering="crispEdges"/><rect fill="#111827" x="0" y="147.9" width="12.2" height="24.65" shape-rendering="crispEdges"/><rect fill="#111827" x="12.2" y="147.9" width="268.4" height="24.65" shape-rendering="crispEdges"/><rect fill="#111827" x="280.6" y="147.9" width="12.2" height="24.65" shape-rendering="crispEdges"/><rect fill="#1f2937" x="292.8" y="147.9" width="12.2" height="24.65" shape-rendering="crispEdges"/><rect fill="#111827" x="305" y="147.9" width="36.6" height="24.65" shape-rendering="crispEdges"/><rect fill="#111827" x="341.6" y="147.9" width="817.4" height="24.65" shape-rendering="crispEdges"/><rect fill="#111827" x="1159" y="147.9" width="12.2" height="24.65" shape-rendering="crispEdges"/><rect fill="#4facfe" x="1171.2" y="147.9" width="24.4" height="24.65" shape-rendering="crispEdges"/><rect fill="#111827" x="1195.6" y="147.9" width="24.4" height="24.65" shape-rendering="crispEdges"/><rect fill="#111827" x="0" y="172.3" width="12.2" height="24.65" shape-rendering="crispEdges"/><rect fill="#111827" x="12.2" y="172.3" width="268.4" height="24.65" shape-rendering="crispEdges"/><rect fill="#111827" x="280.6" y="172.3" width="12.2" height="24.65" shape-rendering="crispEdges"/><rect fill="#1f2937" x="292.8" y="172.3" width="12.2" height="24.65" shape-rendering="crispEdges"/><rect fill="#111827" x="305" y="172.3" width="36.6" height="24.65" shape-rendering="crispEdges"/><rect fill="#111827" x="341.6" y="172.3" width="585.6" height="24.65" shape-rendering="crispEdges"/><rect fill="#111827" x="927.2" y="172.3" width="244" height="24.65" shape-rendering="crispEdges"/><rect fill="#4facfe" x="1171.2" y="172.3" width="24.4" height="24.65" shape-rendering="crispEdges"/><rect fill="#111827" x="1195.6" y="172.3" width="24.4" height="24.65" shape-rendering="crispEdges"/><rect fill="#111827" x="0" y="196.7" width="61" height="24.65" shape-rendering="crispEdges"/><rect fill="#111827" x="61" y="196.7" width="170.8" height="24.65" shape-rendering="crispEdges"/><rect fill="#111827" x="231.8" y="196.7" width="61" height="24.65" shape-rendering="crispEdges"/><rect fill="#1f2937" x="292.8" y="196.7" width="12.2" height="24.65" shape-rendering="crispEdges"/><rect fill="#111827" x="305" y="196.7" width="866.2" height="24.65" shape-rendering="crispEdges"/><rect fill="#4facfe" x="1171.2" y="196.7" width="24.4" height="24.65" shape-rendering="crispEdges"/><rect fill="#111827" x="1195.6" y="196.7" width="24.4" height="24.65" shape-rendering="crispEdges"/><rect fill="#111827" x="0" y="221.1" width="12.2" height="24.65" shape-rendering="crispEdges"/><rect fill="#111827" x="12.2" y="221.1" width="268.4" height="24.65" shape-rendering="crispEdges"/><rect fill="#111827" x="280.6" y="221.1" width="12.2" height="24.65" shape-rendering="crispEdges"/><rect fill="#1f2937" x="292.8" y="221.1" width="12.2" height="24.65" shape-rendering="crispEdges"/><rect fill="#111827" x="305" y="221.1" width="24.4" height="24.65" shape-rendering="crispEdges"/><rect fill="#111827" x="329.4" y="221.1" width="85.4" height="24.65" shape-rendering="crispEdges"/><rect fill="#111827" x="414.8" y="221.1" width="756.4" height="24.65" shape-rendering="crispEdges"/><rect fill="#4facfe" x="1171.2" y="221.1" width="24.4" height="24.65" shape-rendering="crispEdges"/><rect fill="#111827" x="1195.6" y="221.1" width="24.4" height="24.65" shape-rendering="crispEdges"/><rect fill="#111827" x="0" y="245.5" width="12.2" height="24.65" shape-rendering="crispEdges"/><rect fill="#111827" x="12.2" y="245.5" width="268.4" height="24.65" shape-rendering="crispEdges"/><rect fill="#111827" x="280.6" y="245.5" width="12.2" height="24.65" shape-rendering="crispEdges"/><rect fill="#1f2937" x="292.8" y="245.5" width="12.2" height="24.65" shape-rendering="crispEdges"/><rect fill="#111827" x="305" y="245.5" width="24.4" height="24.65" shape-rendering="crispEdges"/><rect fill="#1f2937" x="329.4" y="245.5" width="12.2" height="24.65" shape-rendering="crispEdges"/><rect fill="#111827" x="341.6" y="245.5" width="280.6" height="24.65" shape-rendering="crispEdges"/><rect fill="#111827" x="622.2" y="245.5" width="549" height="24.65" shape-rendering="crispEdges"/><rect fill="#4facfe" x="1171.2" y="245.5" width="24.4" height="24.65" shape-rendering="crispEdges"/><rect fill="#111827" x="1195.6" y="245.5" width="24.4" height="24.65" shape-rendering="crispEdges"/><rect fill="#111827" x="0" y="269.9" width="36.6" height="24.65" shape-rendering="crispEdges"/><rect fill="#111827" x="36.6" y="269.9" width="219.6" height="24.65" shape-rendering="crispEdges"/><rect fill="#111827" x="256.2" y="269.9" width="36.6" height="24.65" shape-rendering="crispEdges"/><rect fill="#1f2937" x="292.8" y="269.9" width="12.2" height="24.65" shape-rendering="crispEdges"/><rect fill="#111827" x="305" y="269.9" width="24.4" height="24.65" shape-rendering="crispEdges"/><rect fill="#1f2937" x="329.4" y="269.9" width="12.2" height="24.65" shape-rendering="crispEdges"/><rect fill="#111827" x="341.6" y="269.9" width="24.4" height="24.65" shape-rendering="crispEdges"/><rect fill="#111827" x="366" y="269.9" width="73.2" height="24.65" shape-rendering="crispEdges"/><rect fill="#111827" x="439.2" y="269.9" width="134.2" height="24.65" shape-rendering="crispEdges"/><rect fill="#111827" x="573.4" y="269.9" width="12.2" height="24.65" shape-rendering="crispEdges"/><rect fill="#111827" x="585.6" y="269.9" width="24.4" height="24.65" shape-rendering="crispEdges"/><rect fill="#111827" x="610" y="269.9" width="12.2" height="24.65" shape-rendering="crispEdges"/><rect fill="#111827" x="622.2" y="269.9" width="549" height="24.65" shape-rendering="crispEdges"/><rect fill="#4facfe" x="1171.2" y="269.9" width="24.4" height="24.65" shape-rendering="crispEdges"/><rect fill="#111827" x="1195.6" y="269.9" width="24.4" height="24.65" shape-rendering="crispEdges"/><rect fill="#111827" x="0" y="294.3" width="12.2" height="24.65" shape-rendering="crispEdges"/><rect fill="#111827" x="12.2" y="294.3" width="268.4" height="24.65" shape-rendering="crispEdges"/><rect fill="#111827" x="280.6" y="294.3" width="12.2" height="24.65" shape-rendering="crispEdges"/><rect fill="#1f2937" x="292.8" y="294.3" width="12.2" height="24.65" shape-rendering="crispEdges"/><rect fill="#111827" x="305" y="294.3" width="24.4" height="24.65" shape-rendering="crispEdges"/><rect fill="#1f2937" x="329.4" y="294.3" width="12.2" height="24.65" shape-rendering="crispEdges"/><rect fill="#111827" x="341.6" y="294.3" width="280.6" height="24.65" shape-rendering="crispEdges"/><rect fill="#111827" x="622.2" y="294.3" width="549" height="24.65" shape-rendering="crispEdges"/><rect fill="#4facfe" x="1171.2" y="294.3" width="24.4" height="24.65" shape-rendering="crispEdges"/><rect fill="#111827" x="1195.6" y="294.3" width="24.4" height="24.65" shape-rendering="crispEdges"/><rect fill="#111827" x="0" y="318.7" width="12.2" height="24.65" shape-rendering="crispEdges"/><rect fill="#111827" x="12.2" y="318.7" width="268.4" height="24.65" shape-rendering="crispEdges"/><rect fill="#111827" x="280.6" y="318.7" width="12.2" height="24.65" shape-rendering="crispEdges"/><rect fill="#4facfe" x="292.8" y="318.7" width="12.2" height="24.65" shape-rendering="crispEdges"/><rect fill="#111827" x="305" y="318.7" width="36.6" height="24.65" shape-rendering="crispEdges"/><rect fill="#111827" x="341.6" y="318.7" width="97.6" height="24.65" shape-rendering="crispEdges"/><rect fill="#111827" x="439.2" y="318.7" width="12.2" height="24.65" shape-rendering="crispEdges"/><rect fill="#111827" x="451.4" y="318.7" width="390.4" height="24.65" shape-rendering="crispEdges"/><rect fill="#111827" x="841.8" y="318.7" width="329.4" height="24.65" shape-rendering="crispEdges"/><rect fill="#4facfe" x="1171.2" y="318.7" width="24.4" height="24.65" shape-rendering="crispEdges"/><rect fill="#111827" x="1195.6" y="318.7" width="24.4" height="24.65" shape-rendering="crispEdges"/><rect fill="#111827" x="0" y="343.1" width="36.6" height="24.65" shape-rendering="crispEdges"/><rect fill="#111827" x="36.6" y="343.1" width="219.6" height="24.65" shape-rendering="crispEdges"/><rect fill="#111827" x="256.2" y="343.1" width="36.6" height="24.65" shape-rendering="crispEdges"/><rect fill="#4facfe" x="292.8" y="343.1" width="12.2" height="24.65" shape-rendering="crispEdges"/><rect fill="#111827" x="305" y="343.1" width="866.2" height="24.65" shape-rendering="crispEdges"/><rect fill="#4facfe" x="1171.2" y="343.1" width="24.4" height="24.65" shape-rendering="crispEdges"/><rect fill="#111827" x="1195.6" y="343.1" width="24.4" height="24.65" shape-rendering="crispEdges"/><rect fill="#111827" x="0" y="367.5" width="12.2" height="24.65" shape-rendering="crispEdges"/><rect fill="#111827" x="12.2" y="367.5" width="268.4" height="24.65" shape-rendering="crispEdges"/><rect fill="#111827" x="280.6" y="367.5" width="12.2" height="24.65" shape-rendering="crispEdges"/><rect fill="#4facfe" x="292.8" y="367.5" width="12.2" height="24.65" shape-rendering="crispEdges"/><rect fill="#111827" x="305" y="367.5" width="866.2" height="24.65" shape-rendering="crispEdges"/><rect fill="#4facfe" x="1171.2" y="367.5" width="24.4" height="24.65" shape-rendering="crispEdges"/><rect fill="#111827" x="1195.6" y="367.5" width="24.4" height="24.65" shape-rendering="crispEdges"/><rect fill="#111827" x="0" y="391.9" width="12.2" height="24.65" shape-rendering="crispEdges"/><rect fill="#111827" x="12.2" y="391.9" width="268.4" height="24.65" shape-rendering="crispEdges"/><rect fill="#111827" x="280.6" y="391.9" width="12.2" height="24.65" shape-rendering="crispEdges"/><rect fill="#4facfe" x="292.8" y="391.9" width="12.2" height="24.65" shape-rendering="crispEdges"/><rect fill="#111827" x="305" y="391.9" width="24.4" height="24.65" shape-rendering="crispEdges"/><rect fill="#1c2331" x="329.4" y="391.9" width="841.8" height="24.65" shape-rendering="crispEdges"/><rect fill="#4facfe" x="1171.2" y="391.9" width="24.4" height="24.65" shape-rendering="crispEdges"/><rect fill="#111827" x="1195.6" y="391.9" width="24.4" height="24.65" shape-rendering="crispEdges"/><rect fill="#111827" x="0" y="416.3" width="73.2" height="24.65" shape-rendering="crispEdges"/><rect fill="#111827" x="73.2" y="416.3" width="146.4" height="24.65" shape-rendering="crispEdges"/><rect fill="#111827" x="219.6" y="416.3" width="73.2" height="24.65" shape-rendering="crispEdges"/><rect fill="#4facfe" x="292.8" y="416.3" width="12.2" height="24.65" shape-rendering="crispEdges"/><rect fill="#111827" x="305" y="416.3" width="24.4" height="24.65" shape-rendering="crispEdges"/><rect fill="#1c2331" x="329.4" y="416.3" width="12.2" height="24.65" shape-rendering="crispEdges"/><rect fill="#57affd" x="341.6" y="416.3" width="134.2" height="24.65" shape-rendering="crispEdges"/><rect fill="#57affd" x="475.8" y="416.3" width="158.6" height="24.65" shape-rendering="crispEdges"/><rect fill="#57affd" x="634.4" y="416.3" width="524.6" height="24.65" shape-rendering="crispEdges"/><rect fill="#57affd" x="1159" y="416.3" width="0" height="24.65" shape-rendering="crispEdges"/><rect fill="#1c2331" x="1159" y="416.3" width="12.2" height="24.65" shape-rendering="crispEdges"/><rect fill="#4facfe" x="1171.2" y="416.3" width="24.4" height="24.65" shape-rendering="crispEdges"/><rect fill="#111827" x="1195.6" y="416.3" width="24.4" height="24.65" shape-rendering="crispEdges"/><rect fill="#111827" x="0" y="440.7" width="12.2" height="24.65" shape-rendering="crispEdges"/><rect fill="#111827" x="12.2" y="440.7" width="268.4" height="24.65" shape-rendering="crispEdges"/><rect fill="#111827" x="280.6" y="440.7" width="12.2" height="24.65" shape-rendering="crispEdges"/><rect fill="#4facfe" x="292.8" y="440.7" width="12.2" height="24.65" shape-rendering="crispEdges"/><rect fill="#111827" x="305" y="440.7" width="24.4" height="24.65" shape-rendering="crispEdges"/><rect fill="#1c2331" x="329.4" y="440.7" width="12.2" height="24.65" shape-rendering="crispEdges"/><rect fill="#00f2fe" x="341.6" y="440.7" width="134.2" height="24.65" shape-rendering="crispEdges"/><rect fill="#00f2fe" x="475.8" y="440.7" width="158.6" height="24.65" shape-rendering="crispEdges"/><rect fill="#00f2fe" x="634.4" y="440.7" width="524.6" height="24.65" shape-rendering="crispEdges"/><rect fill="#00f2fe" x="1159" y="440.7" width="0" height="24.65" shape-rendering="crispEdges"/><rect fill="#1c2331" x="1159" y="440.7" width="12.2" height="24.65" shape-rendering="crispEdges"/><rect fill="#4facfe" x="1171.2" y="440.7" width="24.4" height="24.65" shape-rendering="crispEdges"/><rect fill="#111827" x="1195.6" y="440.7" width="24.4" height="24.65" shape-rendering="crispEdges"/><rect fill="#234467" x="0" y="465.1" width="12.2" height="24.65" shape-rendering="crispEdges"/><rect fill="#234467" x="12.2" y="465.1" width="268.4" height="24.65" shape-rendering="crispEdges"/><rect fill="#234467" x="280.6" y="465.1" width="12.2" height="24.65" shape-rendering="crispEdges"/><rect fill="#4facfe" x="292.8" y="465.1" width="12.2" height="24.65" shape-rendering="crispEdges"/><rect fill="#111827" x="305" y="465.1" width="24.4" height="24.65" shape-rendering="crispEdges"/><rect fill="#1c2331" x="329.4" y="465.1" width="841.8" height="24.65" shape-rendering="crispEdges"/><rect fill="#4facfe" x="1171.2" y="465.1" width="24.4" height="24.65" shape-rendering="crispEdges"/><rect fill="#111827" x="1195.6" y="465.1" width="24.4" height="24.65" shape-rendering="crispEdges"/><rect fill="#234467" x="0" y="489.5" width="61" height="24.65" shape-rendering="crispEdges"/><rect fill="#234467" x="61" y="489.5" width="158.6" height="24.65" shape-rendering="crispEdges"/><rect fill="#234467" x="219.6" y="489.5" width="73.2" height="24.65" shape-rendering="crispEdges"/><rect fill="#1f2937" x="292.8" y="489.5" width="12.2" height="24.65" shape-rendering="crispEdges"/><rect fill="#111827" x="305" y="489.5" width="866.2" height="24.65" shape-rendering="crispEdges"/><rect fill="#4facfe" x="1171.2" y="489.5" width="24.4" height="24.65" shape-rendering="crispEdges"/><rect fill="#111827" x="1195.6" y="489.5" width="24.4" height="24.65" shape-rendering="crispEdges"/><rect fill="#234467" x="0" y="513.9" width="12.2" height="24.65" shape-rendering="crispEdges"/><rect fill="#234467" x="12.2" y="513.9" width="268.4" height="24.65" shape-rendering="crispEdges"/><rect fill="#234467" x="280.6" y="513.9" width="12.2" height="24.65" shape-rendering="crispEdges"/><rect fill="#1f2937" x="292.8" y="513.9" width="12.2" height="24.65" shape-rendering="crispEdges"/><rect fill="#111827" x="305" y="513.9" width="36.6" height="24.65" shape-rendering="crispEdges"/><rect fill="#111827" x="341.6" y="513.9" width="73.2" height="24.65" shape-rendering="crispEdges"/><rect fill="#111827" x="414.8" y="513.9" width="756.4" height="24.65" shape-rendering="crispEdges"/><rect fill="#4facfe" x="1171.2" y="513.9" width="24.4" height="24.65" shape-rendering="crispEdges"/><rect fill="#111827" x="1195.6" y="513.9" width="24.4" height="24.65" shape-rendering="crispEdges"/><rect fill="#1f2937" x="0" y="538.3" width="305" height="24.65" shape-rendering="crispEdges"/><rect fill="#111827" x="305" y="538.3" width="866.2" height="24.65" shape-rendering="crispEdges"/><rect fill="#4facfe" x="1171.2" y="538.3" width="24.4" height="24.65" shape-rendering="crispEdges"/><rect fill="#111827" x="1195.6" y="538.3" width="24.4" height="24.65" shape-rendering="crispEdges"/><rect fill="#1f2937" x="0" y="562.7" width="305" height="24.65" shape-rendering="crispEdges"/><rect fill="#111827" x="305" y="562.7" width="36.6" height="24.65" shape-rendering="crispEdges"/><rect fill="#111827" x="341.6" y="562.7" width="183" height="24.65" shape-rendering="crispEdges"/><rect fill="#111827" x="524.6" y="562.7" width="12.2" height="24.65" shape-rendering="crispEdges"/><rect fill="#111827" x="536.8" y="562.7" width="207.4" height="24.65" shape-rendering="crispEdges"/><rect fill="#111827" x="744.2" y="562.7" width="12.2" height="24.65" shape-rendering="crispEdges"/><rect fill="#111827" x="756.4" y="562.7" width="170.8" height="24.65" shape-rendering="crispEdges"/><rect fill="#111827" x="927.2" y="562.7" width="12.2" height="24.65" shape-rendering="crispEdges"/><rect fill="#111827" x="939.4" y="562.7" width="170.8" height="24.65" shape-rendering="crispEdges"/><rect fill="#111827" x="1110.2" y="562.7" width="61" height="24.65" shape-rendering="crispEdges"/><rect fill="#4facfe" x="1171.2" y="562.7" width="24.4" height="24.65" shape-rendering="crispEdges"/><rect fill="#111827" x="1195.6" y="562.7" width="24.4" height="24.65" shape-rendering="crispEdges"/><rect fill="#1f2937" x="0" y="587.1" width="12.2" height="24.65" shape-rendering="crispEdges"/><rect fill="#1f2937" x="12.2" y="587.1" width="280.6" height="24.65" shape-rendering="crispEdges"/><rect fill="#1f2937" x="292.8" y="587.1" width="12.2" height="24.65" shape-rendering="crispEdges"/><rect fill="#111827" x="305" y="587.1" width="36.6" height="24.65" shape-rendering="crispEdges"/><rect fill="#111827" x="341.6" y="587.1" width="12.2" height="24.65" shape-rendering="crispEdges"/><rect fill="#111827" x="353.8" y="587.1" width="158.6" height="24.65" shape-rendering="crispEdges"/><rect fill="#111827" x="512.4" y="587.1" width="12.2" height="24.65" shape-rendering="crispEdges"/><rect fill="#111827" x="524.6" y="587.1" width="12.2" height="24.65" shape-rendering="crispEdges"/><rect fill="#111827" x="536.8" y="587.1" width="12.2" height="24.65" shape-rendering="crispEdges"/><rect fill="#111827" x="549" y="587.1" width="183" height="24.65" shape-rendering="crispEdges"/><rect fill="#111827" x="732" y="587.1" width="12.2" height="24.65" shape-rendering="crispEdges"/><rect fill="#111827" x="744.2" y="587.1" width="12.2" height="24.65" shape-rendering="crispEdges"/><rect fill="#111827" x="756.4" y="587.1" width="12.2" height="24.65" shape-rendering="crispEdges"/><rect fill="#111827" x="768.6" y="587.1" width="146.4" height="24.65" shape-rendering="crispEdges"/><rect fill="#111827" x="915" y="587.1" width="12.2" height="24.65" shape-rendering="crispEdges"/><rect fill="#111827" x="927.2" y="587.1" width="12.2" height="24.65" shape-rendering="crispEdges"/><rect fill="#111827" x="939.4" y="587.1" width="12.2" height="24.65" shape-rendering="crispEdges"/><rect fill="#111827" x="951.6" y="587.1" width="36.6" height="24.65" shape-rendering="crispEdges"/><rect fill="#111827" x="988.2" y="587.1" width="73.2" height="24.65" shape-rendering="crispEdges"/><rect fill="#111827" x="1061.4" y="587.1" width="36.6" height="24.65" shape-rendering="crispEdges"/><rect fill="#111827" x="1098" y="587.1" width="12.2" height="24.65" shape-rendering="crispEdges"/><rect fill="#111827" x="1110.2" y="587.1" width="61" height="24.65" shape-rendering="crispEdges"/><rect fill="#4facfe" x="1171.2" y="587.1" width="24.4" height="24.65" shape-rendering="crispEdges"/><rect fill="#111827" x="1195.6" y="587.1" width="24.4" height="24.65" shape-rendering="crispEdges"/><rect fill="#1f2937" x="0" y="611.5" width="97.6" height="24.65" shape-rendering="crispEdges"/><rect fill="#1f2937" x="97.6" y="611.5" width="109.8" height="24.65" shape-rendering="crispEdges"/><rect fill="#1f2937" x="207.4" y="611.5" width="97.6" height="24.65" shape-rendering="crispEdges"/><rect fill="#111827" x="305" y="611.5" width="915" height="24.65" shape-rendering="crispEdges"/><rect fill="#1f2937" x="0" y="635.9" width="12.2" height="24.65" shape-rendering="crispEdges"/><rect fill="#1f2937" x="12.2" y="635.9" width="280.6" height="24.65" shape-rendering="crispEdges"/><rect fill="#1f2937" x="292.8" y="635.9" width="12.2" height="24.65" shape-rendering="crispEdges"/><rect fill="#111827" x="305" y="635.9" width="915" height="24.65" shape-rendering="crispEdges"/><rect fill="#1f2937" x="0" y="660.3" width="305" height="24.65" shape-rendering="crispEdges"/><rect fill="#111827" x="305" y="660.3" width="915" height="24.65" shape-rendering="crispEdges"/><rect fill="#111827" x="0" y="684.7" width="1220" height="24.65" shape-rendering="crispEdges"/><rect fill="#111827" x="0" y="709.1" width="61" height="24.65" shape-rendering="crispEdges"/><rect fill="#111827" x="61" y="709.1" width="61" height="24.65" shape-rendering="crispEdges"/><rect fill="#111827" x="122" y="709.1" width="36.6" height="24.65" shape-rendering="crispEdges"/><rect fill="#111827" x="158.6" y="709.1" width="48.8" height="24.65" shape-rendering="crispEdges"/><rect fill="#111827" x="207.4" y="709.1" width="36.6" height="24.65" shape-rendering="crispEdges"/><rect fill="#111827" x="244" y="709.1" width="85.4" height="24.65" shape-rendering="crispEdges"/><rect fill="#111827" x="329.4" y="709.1" width="36.6" height="24.65" shape-rendering="crispEdges"/><rect fill="#111827" x="366" y="709.1" width="97.6" height="24.65" shape-rendering="crispEdges"/><rect fill="#111827" x="463.6" y="709.1" width="36.6" height="24.65" shape-rendering="crispEdges"/><rect fill="#111827" x="500.2" y="709.1" width="61" height="24.65" shape-rendering="crispEdges"/><rect fill="#111827" x="561.2" y="709.1" width="36.6" height="24.65" shape-rendering="crispEdges"/><rect fill="#111827" x="597.8" y="709.1" width="61" height="24.65" shape-rendering="crispEdges"/><rect fill="#111827" x="658.8" y="709.1" width="48.8" height="24.65" shape-rendering="crispEdges"/><rect fill="#111827" x="707.6" y="709.1" width="61" height="24.65" shape-rendering="crispEdges"/><rect fill="#111827" x="768.6" y="709.1" width="305" height="24.65" shape-rendering="crispEdges"/><rect fill="#111827" x="1073.6" y="709.1" width="12.2" height="24.65" shape-rendering="crispEdges"/><rect fill="#111827" x="1085.8" y="709.1" width="24.4" height="24.65" shape-rendering="crispEdges"/><rect fill="#111827" x="1110.2" y="709.1" width="97.6" height="24.65" shape-rendering="crispEdges"/><rect fill="#111827" x="1207.8" y="709.1" width="12.2" height="24.65" shape-rendering="crispEdges"/>
    <g class="terminal-matrix">
    <text class="terminal-r2" x="12.2" y="20" textLength="12.2" clip-path="url(#terminal-line-0)">⭘</text><text class="terminal-r2" x="536.8" y="20" textLength="109.8" clip-path="url(#terminal-line-0)">Servonaut</text><text class="terminal-r1" x="1220" y="20" textLength="12.2" clip-path="url(#terminal-line-0)">
</text><text class="terminal-r1" x="1220" y="44.4" textLength="12.2" clip-path="url(#terminal-line-1)">
</text><text class="terminal-r4" x="36.6" y="68.8" textLength="109.8" clip-path="url(#terminal-line-2)">Servonaut</text><text class="terminal-r5" x="158.6" y="68.8" textLength="73.2" clip-path="url(#terminal-line-2)">v0.0.0</text><text class="terminal-r4" x="329.4" y="68.8" textLength="305" clip-path="url(#terminal-line-2)">OVH&#160;Public&#160;Cloud&#160;SSH&#160;Keys</text><text class="terminal-r1" x="1220" y="68.8" textLength="12.2" clip-path="url(#terminal-line-2)">
</text><text class="terminal-r8" x="36.6" y="93.2" textLength="170.8" clip-path="url(#terminal-line-3)">Server&#160;Manager</text><text class="terminal-r9" x="341.6" y="93.2" textLength="524.6" clip-path="url(#terminal-line-3)">Project-level&#160;keys&#160;registered&#160;with&#160;OVHcloud</text><text class="terminal-r1" x="1220" y="93.2" textLength="12.2" clip-path="url(#terminal-line-3)">
</text><text class="terminal-r10" x="36.6" y="117.6" textLength="85.4" clip-path="url(#terminal-line-4)">○&#160;relay</text><text class="terminal-r9" x="341.6" y="117.6" textLength="732" clip-path="url(#terminal-line-4)">(/cloud/project/{id}/sshkey).&#160;The&#160;Public&#160;Cloud&#160;create&#160;wizard</text><text class="terminal-r1" x="1220" y="117.6" textLength="12.2" clip-path="url(#terminal-line-4)">
</text><text class="terminal-r9" x="341.6" y="142" textLength="732" clip-path="url(#terminal-line-5)">injects&#160;keys&#160;from&#160;this&#160;list&#160;at&#160;provision&#160;time.&#160;Account-level</text><text class="terminal-r1" x="1220" y="142" textLength="12.2" clip-path="url(#terminal-line-5)">
</text><text class="terminal-r9" x="341.6" y="166.4" textLength="817.4" clip-path="url(#terminal-line-6)">/me/sshKey&#160;keys&#160;(used&#160;by&#160;VPS&#160;/&#160;dedicated&#160;bare-metal)&#160;are&#160;a&#160;separate</text><text class="terminal-r1" x="1220" y="166.4" textLength="12.2" clip-path="url(#terminal-line-6)">
</text><text class="terminal-r9" x="341.6" y="190.8" textLength="585.6" clip-path="url(#terminal-line-7)">registry&#160;—&#160;manage&#160;those&#160;via&#160;the&#160;OVH&#160;web&#160;console.</text><text class="terminal-r1" x="1220" y="190.8" textLength="12.2" clip-path="url(#terminal-line-7)">
</text><text class="terminal-r11" x="61" y="215.2" textLength="158.6" clip-path="url(#terminal-line-8)">&#160;🌐&#160;DNS&#160;Zones&#160;</text><text class="terminal-r1" x="1220" y="215.2" textLength="12.2" clip-path="url(#terminal-line-8)">
</text><text class="terminal-r13" x="329.4" y="239.6" textLength="85.4" clip-path="url(#terminal-line-9)">Account</text><text class="terminal-r1" x="1220" y="239.6" textLength="12.2" clip-path="url(#terminal-line-9)">
</text><text class="terminal-r6" x="329.4" y="264" textLength="12.2" clip-path="url(#terminal-line-10)">▊</text><text class="terminal-r14" x="341.6" y="264" textLength="280.6" clip-path="url(#terminal-line-10)">▔▔▔▔▔▔▔▔▔▔▔▔▔▔▔▔▔▔▔▔▔▔▎</text><text class="terminal-r1" x="1220" y="264" textLength="12.2" clip-path="url(#terminal-line-10)">
</text><text class="terminal-r11" x="36.6" y="288.4" textLength="207.4" clip-path="url(#terminal-line-11)">&#160;📡&#160;IP&#160;Management&#160;</text><text class="terminal-r6" x="329.4" y="288.4" textLength="12.2" clip-path="url(#terminal-line-11)">▊</text><text class="terminal-r13" x="366" y="288.4" textLength="73.2" clip-path="url(#terminal-line-11)">ovh-ca</text><text class="terminal-r13" x="573.4" y="288.4" textLength="12.2" clip-path="url(#terminal-line-11)">▼</text><text class="terminal-r14" x="610" y="288.4" textLength="12.2" clip-path="url(#terminal-line-11)">▎</text><text class="terminal-r1" x="1220" y="288.4" textLength="12.2" clip-path="url(#terminal-line-11)">
</text><text class="terminal-r15" x="292.8" y="312.8" textLength="12.2" clip-path="url(#terminal-line-12)">▇</text><text class="terminal-r6" x="329.4" y="312.8" textLength="12.2" clip-path="url(#terminal-line-12)">▊</text><text class="terminal-r14" x="341.6" y="312.8" textLength="280.6" clip-path="url(#terminal-line-12)">▁▁▁▁▁▁▁▁▁▁▁▁▁▁▁▁▁▁▁▁▁▁▎</text><text class="terminal-r1" x="1220" y="312.8" textLength="12.2" clip-path="url(#terminal-line-12)">
</text><text class="terminal-r9" x="341.6" y="337.2" textLength="97.6" clip-path="url(#terminal-line-13)">Project:</text><text class="terminal-r17" x="451.4" y="337.2" textLength="390.4" clip-path="url(#terminal-line-13)">0e0e0000000000000000000000000002</text><text class="terminal-r1" x="1220" y="337.2" textLength="12.2" clip-path="url(#terminal-line-13)">
</text><text class="terminal-r11" x="36.6" y="361.6" textLength="207.4" clip-path="url(#terminal-line-14)">&#160;💾&#160;Block&#160;Storage&#160;</text><text class="terminal-r1" x="1220" y="361.6" textLength="12.2" clip-path="url(#terminal-line-14)">
</text><text class="terminal-r1" x="1220" y="386" textLength="12.2" clip-path="url(#terminal-line-15)">
</text><text class="terminal-r18" x="329.4" y="410.4" textLength="841.8" clip-path="url(#terminal-line-16)">╭───────────────────────────────────────────────────────────────────╮</text><text class="terminal-r1" x="1220" y="410.4" textLength="12.2" clip-path="url(#terminal-line-16)">
</text><text class="terminal-r11" x="73.2" y="434.8" textLength="134.2" clip-path="url(#terminal-line-17)">&#160;🧾&#160;Billing&#160;</text><text class="terminal-r18" x="329.4" y="434.8" textLength="12.2" clip-path="url(#terminal-line-17)">│</text><text class="terminal-r19" x="341.6" y="434.8" textLength="134.2" clip-path="url(#terminal-line-17)">&#160;Name&#160;&#160;&#160;&#160;&#160;&#160;</text><text class="terminal-r19" x="475.8" y="434.8" textLength="158.6" clip-path="url(#terminal-line-17)">&#160;Fingerprint&#160;</text><text class="terminal-r19" x="634.4" y="434.8" textLength="524.6" clip-path="url(#terminal-line-17)">&#160;Public&#160;Key&#160;(first&#160;40&#160;chars)&#160;&#160;&#160;&#160;&#160;&#160;&#160;&#160;&#160;&#160;&#160;&#160;&#160;&#160;&#160;</text><text class="terminal-r18" x="1159" y="434.8" textLength="12.2" clip-path="url(#terminal-line-17)">│</text><text class="terminal-r1" x="1220" y="434.8" textLength="12.2" clip-path="url(#terminal-line-17)">
</text><text class="terminal-r18" x="329.4" y="459.2" textLength="12.2" clip-path="url(#terminal-line-18)">│</text><text class="terminal-r20" x="341.6" y="459.2" textLength="134.2" clip-path="url(#terminal-line-18)">&#160;deploy-ca&#160;</text><text class="terminal-r20" x="634.4" y="459.2" textLength="524.6" clip-path="url(#terminal-line-18)">&#160;ssh-ed25519&#160;AAAAC3NzaC1lZDI1NTE5AAAAIFix…&#160;</text><text class="terminal-r18" x="1159" y="459.2" textLength="12.2" clip-path="url(#terminal-line-18)">│</text><text class="terminal-r1" x="1220" y="459.2" textLength="12.2" clip-path="url(#terminal-line-18)">
</text><text class="terminal-r14" x="292.8" y="483.6" textLength="12.2" clip-path="url(#terminal-line-19)">▆</text><text class="terminal-r18" x="329.4" y="483.6" textLength="841.8" clip-path="url(#terminal-line-19)">╰───────────────────────────────────────────────────────────────────╯</text><text class="terminal-r1" x="1220" y="483.6" textLength="12.2" clip-path="url(#terminal-line-19)">
</text><text class="terminal-r4" x="61" y="508" textLength="146.4" clip-path="url(#terminal-line-20)">&#160;🔑&#160;SSH&#160;Keys&#160;</text><text class="terminal-r1" x="1220" y="508" textLength="12.2" clip-path="url(#terminal-line-20)">
</text><text class="terminal-r21" x="341.6" y="532.4" textLength="73.2" clip-path="url(#terminal-line-21)">1&#160;key.</text><text class="terminal-r1" x="1220" y="532.4" textLength="12.2" clip-path="url(#terminal-line-21)">
</text><text class="terminal-r1" x="1220" y="556.8" textLength="12.2" clip-path="url(#terminal-line-22)">
</text><text class="terminal-r18" x="341.6" y="581.2" textLength="183" clip-path="url(#terminal-line-23)">╭─────────────╮</text><text class="terminal-r18" x="536.8" y="581.2" textLength="207.4" clip-path="url(#terminal-line-23)">╭───────────────╮</text><text class="terminal-r18" x="756.4" y="581.2" textLength="170.8" clip-path="url(#terminal-line-23)">╭────────────╮</text><text class="terminal-r18" x="939.4" y="581.2" textLength="170.8" clip-path="url(#terminal-line-23)">╭────────────╮</text><text class="terminal-r1" x="1220" y="581.2" textLength="12.2" clip-path="url(#terminal-line-23)">
</text><text class="terminal-r18" x="341.6" y="605.6" textLength="12.2" clip-path="url(#terminal-line-24)">│</text><text class="terminal-r11" x="353.8" y="605.6" textLength="158.6" clip-path="url(#terminal-line-24)">&#160;Refresh&#160;(r)&#160;</text><text class="terminal-r18" x="512.4" y="605.6" textLength="12.2" clip-path="url(#terminal-line-24)">│</text><text class="terminal-r18" x="536.8" y="605.6" textLength="12.2" clip-path="url(#terminal-line-24)">│</text><text class="terminal-r11" x="549" y="605.6" textLength="183" clip-path="url(#terminal-line-24)">&#160;+&#160;Add&#160;Key&#160;(n)&#160;</text><text class="terminal-r18" x="732" y="605.6" textLength="12.2" clip-path="url(#terminal-line-24)">│</text><text class="terminal-r18" x="756.4" y="605.6" textLength="12.2" clip-path="url(#terminal-line-24)">│</text><text class="terminal-r11" x="768.6" y="605.6" textLength="146.4" clip-path="url(#terminal-line-24)">&#160;Delete&#160;(d)&#160;</text><text class="terminal-r18" x="915" y="605.6" textLength="12.2" clip-path="url(#terminal-line-24)">│</text><text class="terminal-r18" x="939.4" y="605.6" textLength="12.2" clip-path="url(#terminal-line-24)">│</text><text class="terminal-r22" x="988.2" y="605.6" textLength="73.2" clip-path="url(#terminal-line-24)">&#160;Back&#160;</text><text class="terminal-r18" x="1098" y="605.6" textLength="12.2" clip-path="url(#terminal-line-24)">│</text><text class="terminal-r6" x="1171.2" y="605.6" textLength="24.4" clip-path="url(#terminal-line-24)">▇▇</text><text class="terminal-r1" x="1220" y="605.6" textLength="12.2" clip-path="url(#terminal-line-24)">
</text><text class="terminal-r22" x="97.6" y="630" textLength="97.6" clip-path="url(#terminal-line-25)">&#160;👋&#160;Quit&#160;</text><text class="terminal-r1" x="1220" y="630" textLength="12.2" clip-path="url(#terminal-line-25)">
</text><text class="terminal-r1" x="1220" y="654.4" textLength="12.2" clip-path="url(#terminal-line-26)">
</text><text class="terminal-r1" x="1220" y="678.8" textLength="12.2" clip-path="url(#terminal-line-27)">
</text><text class="terminal-r15" x="0" y="703.2" textLength="1220" clip-path="url(#terminal-line-28)">▁▁▁▁▁▁▁▁▁▁▁▁▁▁▁▁▁▁▁▁▁▁▁▁▁▁▁▁▁▁▁▁▁▁▁▁▁▁▁▁▁▁▁▁▁▁▁▁▁▁▁▁▁▁▁▁▁▁▁▁▁▁▁▁▁▁▁▁▁▁▁▁▁▁▁▁▁▁▁▁▁▁▁▁▁▁▁▁▁▁▁▁▁▁▁▁▁▁▁▁</text><text class="terminal-r1" x="1220" y="703.2" textLength="12.2" clip-path="url(#terminal-line-28)">
</text><text class="terminal-r4" x="0" y="727.6" textLength="61" clip-path="url(#terminal-line-29)">&#160;esc&#160;</text><text class="terminal-r12" x="61" y="727.6" textLength="61" clip-path="url(#terminal-line-29)">Back&#160;</text><text class="terminal-r4" x="122" y="727.6" textLength="36.6" clip-path="url(#terminal-line-29)">&#160;n&#160;</text><text class="terminal-r12" x="158.6" y="727.6" textLength="48.8" clip-path="url(#terminal-line-29)">Add&#160;</text><text class="terminal-r4" x="207.4" y="727.6" textLength="36.6" clip-path="url(#terminal-line-29)">&#160;d&#160;</text><text class="terminal-r12" x="244" y="727.6" textLength="85.4" clip-path="url(#terminal-line-29)">Delete&#160;</text><text class="terminal-r4" x="329.4" y="727.6" textLength="36.6" clip-path="url(#terminal-line-29)">&#160;r&#160;</text><text class="terminal-r12" x="366" y="727.6" textLength="97.6" clip-path="url(#terminal-line-29)">Refresh&#160;</text><text class="terminal-r4" x="463.6" y="727.6" textLength="36.6" clip-path="url(#terminal-line-29)">&#160;q&#160;</text><text class="terminal-r12" x="500.2" y="727.6" textLength="61" clip-path="url(#terminal-line-29)">Quit&#160;</text><text class="terminal-r4" x="561.2" y="727.6" textLength="36.6" clip-path="url(#terminal-line-29)">&#160;?&#160;</text><text class="terminal-r12" x="597.8" y="727.6" textLength="61" clip-path="url(#terminal-line-29)">Help&#160;</text><text class="terminal-r4" x="658.8" y="727.6" textLength="48.8" clip-path="url(#terminal-line-29)">&#160;f2&#160;</text><text class="terminal-r12" x="707.6" y="727.6" textLength="61" clip-path="url(#terminal-line-29)">Chat&#160;</text><text class="terminal-r23" x="1073.6" y="727.6" textLength="12.2" clip-path="url(#terminal-line-29)">▏</text><text class="terminal-r4" x="1085.8" y="727.6" textLength="24.4" clip-path="url(#terminal-line-29)">^p</text><text class="terminal-r12" x="1110.2" y="727.6" textLength="97.6" clip-path="url(#terminal-line-29)">&#160;palette</text>
    </g>
    </g>
</svg>
